Patient4_TMGait_0pt3_03_left_19_GRF.mot
version=1
nRows=58
nColumns=19
inDegrees=no
endheader
time	F1x	F1y	F1z	M1x	M1y	M1z	F2x	F2y	F2z	M2x	M2y	M2z	EC1x	EC1y	EC1z	EC2x	EC2y	EC2z
33.07	-0.02501	1.1031	0.16369	-0.59308	0.70684	3.0552	-20.2237	754.3187	-48.5262	325.8106	44.9288	612.1463	-0.0592	0.0182	-0.0073	-0.0462	0.0165	0.9585
33.0872	-0.097605	0.74838	0.10268	-0.41434	0.48276	2.1522	-21.5383	775.5983	-49.342	334.4123	46.5494	629.7692	-0.0592	0.0182	-0.0073	-0.0462	0.0165	0.9585
33.1044	-0.15631	0.4776	0.055705	-0.26926	0.27361	1.4142	-22.95	799.8101	-49.9763	344.3601	48.0005	649.3756	-0.0592	0.0182	-0.0073	-0.0462	0.0165	0.9585
33.1216	-0.19948	0.30198	0.0176	-0.16401	0.10488	0.88048	-24.2213	825.3671	-50.3316	355.003	49.0875	669.542	-0.0592	0.0182	-0.0073	-0.0462	0.0165	0.9585
33.1389	-0.22995	0.20916	-0.01516	-0.095699	-0.015977	0.53748	-25.1011	850.4608	-50.341	365.5629	49.6503	688.7289	-0.0592	0.0182	-0.0073	-0.0462	0.0165	0.9585
33.1561	-0.25096	0.17002	-0.043621	-0.055799	-0.094056	0.3505	-25.381	873.2041	-49.9784	375.2064	49.5839	705.4066	-0.0592	0.0182	-0.0073	-0.0462	0.0165	0.9585
33.1733	-0.27036	0.14109	-0.064703	-0.030575	-0.14172	0.26274	-24.9324	891.7553	-49.2512	383.1048	48.8434	718.157	-0.0592	0.0182	-0.0073	-0.0462	0.0165	0.9585
33.1905	-0.2983	0.064684	-0.078282	-0.00060494	-0.17031	0.1956	-23.7042	904.4773	-48.1957	388.5105	47.4405	725.7843	-0.0592	0.0182	-0.0073	-0.0462	0.0165	0.9585
33.2077	-0.34524	-0.12345	-0.085874	0.057504	-0.18899	0.060264	-21.7172	910.1273	-46.8803	390.8451	45.442	727.4481	-0.0592	0.0182	-0.0073	-0.0462	0.0165	0.9585
33.2249	-0.41576	-0.49724	-0.091412	0.1702	-0.20174	-0.23296	-19.0469	907.9751	-45.3951	389.7559	42.9553	722.7313	-0.0592	0.0182	-0.0073	-0.0462	0.0165	0.9585
33.2421	-0.50447	-1.1375	-0.10301	0.36575	-0.20561	-0.77764	-15.791	897.8509	-43.8552	385.1429	40.1188	711.6476	-0.0592	0.0182	-0.0073	-0.0462	0.0165	0.9585
33.2594	-0.59814	-2.1151	-0.12907	0.66868	-0.19521	-1.6536	-12.0598	880.1768	-42.3937	377.1758	37.0948	694.6419	-0.0592	0.0182	-0.0073	-0.0462	0.0165	0.9585
33.2766	-0.66898	-3.4626	-0.17791	1.0921	-0.15795	-2.8995	-7.975	855.9288	-41.1364	366.2817	34.0519	672.5482	-0.0592	0.0182	-0.0073	-0.0462	0.0165	0.9585
33.2938	-0.67086	-5.1387	-0.25309	1.6277	-0.076821	-4.4819	-3.6507	826.5336	-40.1815	353.1043	31.1427	646.5027	-0.0592	0.0182	-0.0073	-0.0462	0.0165	0.9585
33.311	-0.53585	-6.9838	-0.34531	2.2244	0.060616	-6.2503	0.81621	793.7926	-39.5701	338.4678	28.4723	617.8931	-0.0592	0.0182	-0.0073	-0.0462	0.0165	0.9585
33.3282	-0.17054	-8.6531	-0.43167	2.7677	0.26186	-7.8819	5.3334	759.763	-39.2692	323.3144	26.0815	588.2847	-0.0592	0.0182	-0.0073	-0.0462	0.0165	0.9585
33.3454	0.53229	-9.5512	-0.47603	3.0609	0.5272	-8.8173	9.8093	726.5611	-39.1927	308.6032	23.963	559.2807	-0.0592	0.0182	-0.0073	-0.0462	0.0165	0.9585
33.3626	1.6746	-8.7732	-0.42766	2.8076	0.84304	-8.2172	14.1509	696.1718	-39.244	295.2203	22.0906	532.3867	-0.0592	0.0182	-0.0073	-0.0462	0.0165	0.9585
33.3799	3.3323	-5.0727	-0.2187	1.6038	1.1729	-4.9253	18.2607	670.264	-39.3337	283.896	20.4314	508.8723	-0.0592	0.0182	-0.0073	-0.0462	0.0165	0.9585
33.3971	5.5147	3.1036	0.23449	-1.0519	1.4435	2.5041	22.047	649.9504	-39.3867	275.1057	18.9541	489.601	-0.0592	0.0182	-0.0073	-0.0462	0.0165	0.9585
33.4143	8.097	17.473	1.0266	-5.7129	1.5293	15.6732	25.4415	635.5262	-39.339	268.9652	17.6242	474.828	-0.0592	0.0182	-0.0073	-0.0462	0.0165	0.9585
33.4315	10.7404	39.5962	2.2483	-12.8817	1.2404	36.0464	28.3902	626.3047	-39.1399	265.1646	16.4097	464.0902	-0.0592	0.0182	-0.0073	-0.0462	0.0165	0.9585
33.4487	12.7992	70.3347	3.9574	-22.8334	0.31947	64.4604	30.8276	620.6307	-38.7476	262.9774	15.2848	456.2224	-0.0592	0.0182	-0.0073	-0.0462	0.0165	0.9585
33.4659	13.2899	109.1318	6.154	-35.384	-1.5471	100.4654	32.6518	616.1007	-38.1272	261.3557	14.2409	449.5251	-0.0592	0.0182	-0.0073	-0.0462	0.0165	0.9585
33.4831	11.5536	153.8961	8.8566	-49.8452	-4.5916	142.2004	33.7222	609.9763	-37.2651	259.1075	13.306	442.0755	-0.0592	0.0182	-0.0073	-0.0462	0.0165	0.9585
33.5004	7.8933	201.3552	12.1812	-65.1278	-8.8322	186.6633	33.8954	599.7756	-36.1739	255.1466	12.5351	432.1367	-0.0592	0.0182	-0.0073	-0.0462	0.0165	0.9585
33.5176	3.0676	247.198	16.1798	-79.8148	-14.0802	229.8011	33.0811	583.8426	-34.8868	248.7379	11.9862	418.5525	-0.0592	0.0182	-0.0073	-0.0462	0.0165	0.9585
33.5348	-2.0192	287.7632	20.4416	-92.7458	-19.6515	268.1242	31.3063	561.7872	-33.4494	239.6821	11.6869	401.0455	-0.0592	0.0182	-0.0073	-0.0462	0.0165	0.9585
33.552	-6.7213	321.906	24.2706	-103.6031	-24.6761	300.5223	28.7538	534.555	-31.9441	228.3432	11.6256	380.2515	-0.0592	0.0182	-0.0073	-0.0462	0.0165	0.9585
33.5692	-10.7265	350.5014	27.1637	-112.7161	-28.5971	327.8265	25.7432	503.9607	-30.4672	215.4571	11.7403	357.3888	-0.0592	0.0182	-0.0073	-0.0462	0.0165	0.9585
33.5864	-13.9515	374.9595	28.8677	-120.5648	-31.1759	351.4051	22.6652	472.0181	-29.075	201.8563	11.9091	333.8018	-0.0592	0.0182	-0.0073	-0.0462	0.0165	0.9585
33.6036	-16.4926	396.4151	29.4424	-127.5076	-32.5227	372.3826	19.8795	440.4615	-27.7854	188.2742	11.997	310.6426	-0.0592	0.0182	-0.0073	-0.0462	0.0165	0.9585
33.6209	-18.6022	415.6098	29.2092	-133.7485	-33.029	391.5142	17.6313	410.5324	-26.6015	175.2565	11.9097	288.7336	-0.0592	0.0182	-0.0073	-0.0462	0.0165	0.9585
33.6381	-20.5784	433.0706	28.609	-139.4109	-33.1964	409.3188	16.0098	382.9109	-25.5225	163.1269	11.62	268.5165	-0.0592	0.0182	-0.0073	-0.0462	0.0165	0.9585
33.6553	-22.6189	449.2687	28.021	-144.6092	-33.4252	426.1851	14.9681	357.7351	-24.5191	151.9889	11.1397	250.0638	-0.0592	0.0182	-0.0073	-0.0462	0.0165	0.9585
33.6725	-24.7364	464.6676	27.6182	-149.475	-33.8614	442.4237	14.3706	334.6961	-23.5114	141.759	10.4832	233.1579	-0.0592	0.0182	-0.0073	-0.0462	0.0165	0.9585
33.6897	-26.765	479.6443	27.3945	-154.1282	-34.4282	458.2234	14.0604	313.1933	-22.3943	132.2277	9.6558	217.3974	-0.0592	0.0182	-0.0073	-0.0462	0.0165	0.9585
33.7069	-28.438	494.3864	27.3197	-158.6328	-34.9973	473.5893	13.9032	292.5367	-21.0756	123.1395	8.6646	202.3271	-0.0592	0.0182	-0.0073	-0.0462	0.0165	0.9585
33.7241	-29.5131	508.8913	27.428	-162.9897	-35.5129	488.3777	13.7901	272.1331	-19.5185	114.2653	7.5399	187.5649	-0.0592	0.0182	-0.0073	-0.0462	0.0165	0.9585
33.7414	-29.8452	523.0574	27.784	-167.1677	-35.9878	502.4021	13.6283	251.5955	-17.7552	105.4455	6.3461	172.8686	-0.0592	0.0182	-0.0073	-0.0462	0.0165	0.9585
33.7586	-29.3886	536.7939	28.439	-171.1435	-36.4628	515.531	13.3429	230.8033	-15.8762	96.6182	5.175	158.1664	-0.0592	0.0182	-0.0073	-0.0462	0.0165	0.9585
33.7758	-28.1838	550.0527	29.4235	-174.9121	-36.9858	527.7078	12.879	209.8958	-14.0082	87.8221	4.1281	143.5489	-0.0592	0.0182	-0.0073	-0.0462	0.0165	0.9585
33.793	-26.3496	562.7956	30.7446	-178.4781	-37.604	538.9261	12.1972	189.1711	-12.2845	79.1596	3.2994	129.2016	-0.0592	0.0182	-0.0073	-0.0462	0.0165	0.9585
33.8102	-24.0618	574.9661	32.3739	-181.8435	-38.3458	549.1967	11.2804	168.9398	-10.8141	70.7384	2.7562	115.3059	-0.0592	0.0182	-0.0073	-0.0462	0.0165	0.9585
33.8274	-21.5231	586.5319	34.2518	-185.0181	-39.2172	558.5668	10.1416	149.4483	-9.6555	62.6418	2.5208	101.9946	-0.0592	0.0182	-0.0073	-0.0462	0.0165	0.9585
33.8446	-18.9351	597.5615	36.3282	-188.0391	-40.2343	567.1819	8.8214	130.8844	-8.8054	54.932	2.5635	89.3651	-0.0592	0.0182	-0.0073	-0.0462	0.0165	0.9585
33.8619	-16.4811	608.2915	38.5784	-190.9908	-41.4274	575.3434	7.3777	113.3864	-8.2135	47.6552	2.8162	77.4868	-0.0592	0.0182	-0.0073	-0.0462	0.0165	0.9585
33.8791	-14.3184	619.1574	41.0007	-194.0162	-42.8381	583.5342	5.8742	97.0387	-7.7986	40.8399	3.1882	66.396	-0.0592	0.0182	-0.0073	-0.0462	0.0165	0.9585
33.8963	-12.5925	630.795	43.602	-197.3146	-44.5113	592.4091	4.3643	81.883	-7.4643	34.5006	3.5907	56.1075	-0.0592	0.0182	-0.0073	-0.0462	0.0165	0.9585
33.9135	-11.4514	644.0005	46.3875	-201.1323	-46.4892	602.7536	2.8896	67.9367	-7.1167	28.6457	3.9469	46.6309	-0.0592	0.0182	-0.0073	-0.0462	0.0165	0.9585
33.9307	-11.0127	659.6547	49.3461	-205.7415	-48.791	615.3904	1.4893	55.1944	-6.6796	23.2793	4.1961	37.9687	-0.0592	0.0182	-0.0073	-0.0462	0.0165	0.9585
33.9479	-11.315	678.5816	52.451	-211.3964	-51.3987	631.0388	0.21416	43.6541	-6.1028	18.4075	4.292	30.1361	-0.0592	0.0182	-0.0073	-0.0462	0.0165	0.9585
33.9651	-12.2885	701.3773	55.6768	-218.2829	-54.2623	650.1567	-0.85666	33.3414	-5.3632	14.0458	4.1933	23.167	-0.0592	0.0182	-0.0073	-0.0462	0.0165	0.9585
33.9824	-13.7689	728.2987	58.9885	-226.4817	-57.2961	672.8504	-1.6181	24.33	-4.4669	10.2293	3.8663	17.1175	-0.0592	0.0182	-0.0073	-0.0462	0.0165	0.9585
33.9996	-15.5334	759.1819	62.3285	-235.943	-60.3776	698.8241	-1.9746	16.7435	-3.4569	7.0127	3.3029	12.067	-0.0592	0.0182	-0.0073	-0.0462	0.0165	0.9585
34.0168	-17.3245	793.3753	65.6209	-246.4618	-63.3579	727.349	-1.9054	10.7155	-2.4221	4.4528	2.5532	8.0928	-0.0592	0.0182	-0.0073	-0.0462	0.0165	0.9585
34.034	-18.8748	829.5823	68.7836	-257.6251	-66.083	757.1649	-1.552	6.3191	-1.4876	2.5807	1.7575	5.2279	-0.0592	0.0182	-0.0073	-0.0462	0.0165	0.9585
34.0512	-19.9085	865.6614	71.7386	-268.7476	-68.4077	786.318	-1.0922	3.4273	-0.74272	1.3448	1.0461	3.3747	-0.0592	0.0182	-0.0073	-0.0462	0.0165	0.9585
